<?xml version="1.0" encoding="UTF-8"?>
<svg width="250px" height="47px" viewBox="0 0 250 47" version="1.1" xmlns="http://www.w3.org/2000/svg" xmlns:xlink="http://www.w3.org/1999/xlink">
    <!-- Generator: sketchtool 53.2 (72643) - https://sketchapp.com -->
    <title>D8880775-2259-4CA7-86F4-1C7F553907F6</title>
    <desc>Created with sketchtool.</desc>
    <g id="Main-landing" stroke="none" stroke-width="1" fill="none" fill-rule="evenodd">
        <g id="Landing-main" transform="translate(-693.000000, -3074.000000)">
            <g id="logos" transform="translate(0.000000, 2825.000000)">
                <g id="logo/logo-blockchain" transform="translate(693.000000, 248.559140)">
                    <g id="logo-blockchain">
                        <g id="block" transform="translate(0.500000, 0.489247)" fill-rule="nonzero">
                            <path d="M17.6716481,23.5064155 L7.79099285,33.2437677 L20.2070543,45.4891974 C22.2052821,47.4580852 25.4416872,47.4580852 27.4399149,45.4891974 L39.8464519,33.2437677 L29.9505576,23.5064155 L23.8320566,17.4306684 L17.6716481,23.5064155 Z" id="Shape" fill="#B3B3B3"></path>
                            <path d="M7.79099285,13.7239742 L1.49724215,19.91808 C-0.499080715,21.8888465 -0.499080715,25.0807742 1.49724215,27.0515406 L7.79099285,33.2437677 L17.6716481,23.5064155 L23.8320566,17.4306684 L13.9133036,7.68580129 L7.79099285,13.7239742 Z" id="Shape_1_" fill="#848484"></path>
                            <path d="M33.7031874,27.1905652 L39.844547,33.2437677 L46.1230586,27.0515406 C48.1193815,25.0807742 48.1193815,21.8888465 46.1230586,19.91808 L43.6028915,17.4325471 L33.7031874,27.1905652 Z" id="Shape_2_" fill="#E1E1E1"></path>
                            <polygon id="Shape_3_" fill="#B1D4E5" points="29.9448429 23.483871 29.9448429 23.483871 23.8091979 17.4306684 33.7031874 7.67265032 33.7031874 7.67265032 23.8091979 17.4306684"></polygon>
                            <polygon id="Shape_4_" fill="#989898" points="23.8091979 17.4306684 29.9448429 23.483871 33.7031874 27.1905652 43.5990817 17.4306684 39.8464519 13.7239742 33.7031874 7.67265032"></polygon>
                            <path d="M33.7031874,7.68580129 L27.4246758,1.47854452 C25.426448,-0.490343226 22.190043,-0.490343226 20.1918152,1.47854452 L13.9133036,7.68580129 L23.8320566,17.4306684 L33.7031874,7.68580129 Z" id="Shape_5_" fill="#C0C0C0"></path>
                        </g>
                        <g id="blockchain-vector-logo" transform="translate(67.000000, 15.440860)" fill="#898989" fill-rule="nonzero">
                            <path d="M69.7515075,13.6560302 C68.7859296,14.6675879 67.4065327,15.3113065 65.9351759,15.3113065 C63.0384422,15.3113065 60.6474874,12.9203518 60.6474874,10.0236181 C60.6474874,7.12688442 63.0384422,4.73592965 65.9351759,4.73592965 C67.268593,4.73592965 68.5100503,5.24170854 69.4296482,6.06934673 C69.7055276,6.29924623 70.2113065,6.80502513 70.2113065,6.80502513 L73.4298995,3.35653266 C71.5907035,1.28743719 68.9238693,-3.55271368e-15 65.9351759,-3.55271368e-15 C60.4175879,-3.55271368e-15 55.9115578,4.46005025 55.9115578,10.0236181 C55.9115578,15.541206 60.371608,20.0472362 65.9351759,20.0472362 C69.061809,20.0472362 71.8665829,18.6678392 73.659799,16.3688442 L70.441206,12.9203518 C70.3952261,12.9663317 69.981407,13.4261307 69.7515075,13.6560302 Z" id="Path"></path>
                            <path d="M107.822864,13.6560302 C106.857286,14.6675879 105.477889,15.3113065 104.006533,15.3113065 C101.109799,15.3113065 98.7188442,12.9203518 98.7188442,10.0236181 C98.7188442,7.12688442 101.109799,4.73592965 104.006533,4.73592965 C105.33995,4.73592965 106.581407,5.24170854 107.501005,6.06934673 C107.776884,6.29924623 108.282663,6.80502513 108.282663,6.80502513 L111.501256,3.35653266 C109.66206,1.28743719 106.995226,-3.55271368e-15 104.006533,-3.55271368e-15 C98.4889447,-3.55271368e-15 93.9829146,4.46005025 93.9829146,10.0236181 C93.9829146,15.541206 98.4429648,20.0472362 104.006533,20.0472362 C107.133166,20.0472362 109.93794,18.6678392 111.731156,16.3688442 L108.512563,12.9203518 C108.512563,12.9663317 108.052764,13.4261307 107.822864,13.6560302 Z" id="Path"></path>
                            <path d="M13.5640704,9.60979899 C15.2653266,8.8741206 16.5067839,7.54070352 16.5067839,5.33366834 L16.5067839,5.28768844 C16.5067839,3.95427136 16.0469849,2.94271357 15.2653266,2.16105528 C14.1158291,1.05753769 12.4145729,0.413819095 10.0236181,0.413819095 L0,0.413819095 L0,19.6334171 L10.069598,19.6334171 C14.6675879,19.6334171 17.3344221,17.6103015 17.3344221,14.3457286 L17.3344221,14.2997487 C17.3344221,11.7248744 15.8630653,10.3914573 13.5640704,9.60979899 Z M5.37964824,4.68994975 L8.8281407,4.68994975 C10.4374372,4.68994975 11.2190955,5.33366834 11.2190955,6.34522613 L11.2190955,6.39120603 C11.2190955,7.54070352 10.3454774,8.04648241 8.69020101,8.04648241 L5.33366834,8.04648241 L5.37964824,4.68994975 L5.37964824,4.68994975 Z M12.0467337,13.6100503 C12.0467337,14.7595477 11.1271357,15.3572864 9.4718593,15.3572864 L5.33366834,15.3572864 L5.33366834,11.8168342 L9.3798995,11.8168342 C11.1731156,11.8168342 12.0007538,12.5525126 12.0467337,13.6100503 L12.0467337,13.6100503 L12.0467337,13.6100503 Z" id="Shape"></path>
                            <polygon id="Path" points="25.1050251 0.413819095 19.7253769 0.413819095 19.7253769 19.6334171 33.7492462 19.6334171 33.7492462 15.0354271 25.1050251 15.0354271"></polygon>
                            <polygon id="Path" points="125.663065 7.72462312 118.81206 7.72462312 118.81206 0.505778894 113.432412 0.505778894 113.432412 19.7713568 118.81206 19.7713568 118.81206 12.4605528 125.663065 12.4605528 125.663065 19.7713568 130.996734 19.7713568 130.996734 0.551758794 125.663065 0.551758794"></polygon>
                            <path d="M146.078141,0.367839196 L140.928392,0.367839196 L132.74397,19.7713568 L138.353518,19.7713568 L139.732915,16.3228643 L147.135678,16.3228643 L148.515075,19.7713568 L154.216583,19.7713568 L146.078141,0.367839196 Z M141.250251,12.1846734 L143.411307,6.71306533 L145.572362,12.1846734 C145.572362,12.1846734 141.250251,12.1846734 141.250251,12.1846734 Z" id="Shape"></path>
                            <rect id="Rectangle" x="155.917839" y="0.551758794" width="5.33366834" height="19.2655779"></rect>
                            <polygon id="Path" points="177.390452 0.551758794 177.390452 10.7133166 169.43593 0.551758794 164.378141 0.551758794 164.378141 19.7713568 169.757789 19.7713568 169.757789 9.2419598 177.988191 19.7713568 182.724121 19.7713568 182.724121 0.551758794"></polygon>
                            <polygon id="Path" points="94.4427136 0.459798995 88.0974874 0.459798995 88.0974874 0.459798995 88.0974874 0.459798995 81.4763819 8.27638191 81.4763819 0.459798995 76.1427136 0.459798995 76.1427136 19.7253769 81.4763819 19.7253769 81.4763819 14.7595477 83.4535176 12.5984925 88.8331658 19.7253769 88.8331658 19.7253769 88.8331658 19.7253769 95.178392 19.7253769 86.9479899 8.7361809"></polygon>
                            <path d="M44.4165829,0 C38.898995,0 34.3929648,4.46005025 34.3929648,10.0236181 C34.3929648,15.541206 38.8530151,20.0472362 44.4165829,20.0472362 C49.9341709,20.0472362 54.440201,15.5871859 54.440201,10.0236181 C54.440201,4.50603015 49.9801508,0 44.4165829,0 Z M44.4165829,15.3113065 C41.5198492,15.3113065 39.1288945,12.9203518 39.1288945,10.0236181 C39.1288945,7.12688442 41.5198492,4.73592965 44.4165829,4.73592965 C47.3133166,4.73592965 49.7042714,7.12688442 49.7042714,10.0236181 C49.7042714,12.9203518 47.3133166,15.3113065 44.4165829,15.3113065 Z" id="Shape"></path>
                        </g>
                    </g>
                </g>
            </g>
        </g>
    </g>
</svg>