<svg xmlns="http://www.w3.org/2000/svg" width="14" height="25" viewBox="0 0 14 25">
    <g fill="none" fill-rule="evenodd">
        <path d="M-11-6h36v36h-36z"/>
        <path fill="#D9DEEA" fill-rule="nonzero" d="M7.124 4.118a2.182 2.182 0 1 1 0 4.364 2.182 2.182 0 0 1 0-4.364zm.002 8.482A6.3 6.3 0 1 0 .824 6.302 6.307 6.307 0 0 0 7.126 12.6zm2.395 5.053a11.459 11.459 0 0 0 3.623-1.554c.855-.557 1.113-1.726.576-2.612-.537-.886-1.666-1.153-2.52-.596a7.69 7.69 0 0 1-8.401 0c-.854-.557-1.98-.29-2.518.594-.537.885-.28 2.054.573 2.61a11.477 11.477 0 0 0 3.622 1.555L.988 21.264a1.943 1.943 0 0 0 0 2.679c.715.74 1.872.74 2.586 0l3.423-3.548 3.429 3.551a1.781 1.781 0 0 0 2.581 0c.342-.354.535-.835.535-1.337 0-.501-.193-.982-.535-1.336l-3.488-3.62h.002z"/>
    </g>
</svg>
