<svg xmlns="http://www.w3.org/2000/svg" width="22" height="18" viewBox="0 0 22 18">
    <g fill="none" fill-rule="evenodd">
        <path d="M-7-9h36v36H-7z"/>
        <path fill="#D9DEEA" fill-rule="nonzero" d="M22 2.116c-.81.36-1.68.602-2.592.711A4.529 4.529 0 0 0 21.392.33a9.037 9.037 0 0 1-2.866 1.095 4.514 4.514 0 0 0-7.691 4.117A12.812 12.812 0 0 1 1.532.826a4.491 4.491 0 0 0-.612 2.27c0 1.565.797 2.947 2.008 3.756a4.498 4.498 0 0 1-2.044-.564v.057a4.516 4.516 0 0 0 3.62 4.426 4.518 4.518 0 0 1-2.038.077 4.518 4.518 0 0 0 4.216 3.135 9.057 9.057 0 0 1-5.605 1.932c-.364 0-.724-.021-1.077-.063a12.774 12.774 0 0 0 6.919 2.028c8.302 0 12.842-6.878 12.842-12.843 0-.196-.004-.39-.013-.584A9.189 9.189 0 0 0 22 2.116z"/>
    </g>
</svg>
