<svg xmlns="http://www.w3.org/2000/svg" width="22" height="13" viewBox="0 0 22 13">
    <g fill="none" fill-rule="evenodd">
        <path d="M-7-12h36v36H-7z"/>
        <path fill="#D9DEEA" fill-rule="nonzero" d="M21.883 11.336a1.507 1.507 0 0 0-.074-.143c-.382-.688-1.111-1.532-2.188-2.532l-.023-.023-.011-.011-.012-.012h-.011c-.489-.466-.798-.779-.928-.94-.237-.305-.29-.614-.16-.927.091-.237.435-.737 1.03-1.5.314-.405.562-.73.745-.974 1.321-1.756 1.894-2.879 1.718-3.368l-.068-.114c-.046-.069-.164-.131-.355-.189-.191-.057-.436-.067-.733-.028l-3.3.022a.428.428 0 0 0-.228.006l-.15.035-.057.028-.045.035a.51.51 0 0 0-.126.12.786.786 0 0 0-.115.2c-.359.924-.767 1.783-1.225 2.578-.283.473-.542.883-.78 1.231a5.925 5.925 0 0 1-.595.767c-.16.164-.305.296-.435.395-.13.1-.23.142-.298.126a8.394 8.394 0 0 1-.195-.045.762.762 0 0 1-.257-.281 1.257 1.257 0 0 1-.132-.447 4.925 4.925 0 0 1-.04-.464 9.691 9.691 0 0 1 .005-.55c.008-.236.012-.397.012-.48 0-.29.006-.606.017-.946.012-.34.02-.609.029-.807.008-.199.011-.409.011-.63 0-.222-.013-.395-.04-.521a1.783 1.783 0 0 0-.12-.367.617.617 0 0 0-.235-.275 1.324 1.324 0 0 0-.383-.155c-.405-.091-.92-.14-1.547-.148-1.42-.016-2.333.076-2.738.275-.16.084-.305.198-.435.343-.137.168-.156.26-.057.275.458.069.782.233.973.492l.07.138c.053.1.106.275.16.527.053.252.087.53.103.836a8.916 8.916 0 0 1 0 1.432c-.039.397-.075.706-.11.928-.034.221-.085.4-.154.538a2.271 2.271 0 0 1-.137.252.197.197 0 0 1-.058.057.858.858 0 0 1-.309.058c-.107 0-.237-.054-.39-.16a2.748 2.748 0 0 1-.475-.442 5.895 5.895 0 0 1-.555-.785c-.206-.336-.42-.733-.642-1.19l-.183-.333a28.574 28.574 0 0 1-.47-.933 18 18 0 0 1-.526-1.186.755.755 0 0 0-.275-.367L4.318.723a.784.784 0 0 0-.183-.097A1.216 1.216 0 0 0 3.872.55L.733.574C.413.574.195.647.08.792L.034.86A.37.37 0 0 0 0 1.044c0 .084.023.187.069.309a37.802 37.802 0 0 0 1.495 3.116c.538 1 1.006 1.806 1.403 2.416.397.611.801 1.188 1.214 1.73.412.542.685.89.819 1.042.133.153.238.268.315.344l.286.275c.183.183.453.403.808.658.355.256.748.508 1.18.757a6.4 6.4 0 0 0 1.506.606c.573.157 1.13.22 1.672.19h1.318c.267-.023.47-.107.607-.252l.045-.058a.76.76 0 0 0 .086-.212c.027-.095.04-.2.04-.314a3.774 3.774 0 0 1 .074-.888c.058-.263.123-.462.195-.596a1.464 1.464 0 0 1 .442-.504.747.747 0 0 1 .091-.04c.183-.06.399-.002.647.178.249.18.481.401.7.664.217.264.478.56.784.888.305.328.572.573.801.733l.23.138c.152.091.351.175.595.252.244.076.458.095.642.057l2.932-.046c.29 0 .516-.048.676-.143.16-.096.255-.2.286-.315a.887.887 0 0 0 .006-.39 1.438 1.438 0 0 0-.08-.303z"/>
    </g>
</svg>
