<svg width="36" height="36" xmlns="http://www.w3.org/2000/svg"><g fill-rule="nonzero" fill="none"><circle stroke="#4489FF" cx="18" cy="18" r="17.5"/><path d="M28.495 13.88c.153-.507 0-.88-.728-.88h-2.406c-.612 0-.895.322-1.048.677 0 0-1.223 2.969-2.957 4.897-.561.558-.816.736-1.122.736-.153 0-.375-.178-.375-.685V13.88c0-.609-.178-.88-.687-.88h-3.783c-.382 0-.612.283-.612.55 0 .578.867.71.956 2.334v3.527c0 .773-.14.913-.446.913-.816 0-2.8-2.981-3.978-6.393-.23-.663-.462-.931-1.077-.931H7.825c-.687 0-.825.322-.825.677 0 .634.816 3.78 3.8 7.941C12.787 24.46 15.59 26 18.14 26c1.53 0 1.72-.342 1.72-.931V22.92c0-.684.144-.82.629-.82.357 0 .969.177 2.396 1.547C24.517 25.27 24.787 26 25.705 26h2.406c.688 0 1.032-.342.833-1.017-.217-.673-.996-1.65-2.03-2.807-.56-.66-1.402-1.37-1.657-1.725-.357-.456-.255-.66 0-1.065 0 0 2.932-4.11 3.238-5.506" fill="#4489FF"/></g></svg>