<svg width="48px" height="48px" viewBox="0 0 48 48" version="1.1" xmlns="http://www.w3.org/2000/svg" xmlns:xlink="http://www.w3.org/1999/xlink">
    <defs>
        <linearGradient x1="100%" y1="0%" x2="2.81409439%" y2="97.1859056%" id="linearGradient-1">
            <stop stop-color="#9C5EFF" offset="0%"></stop>
            <stop stop-color="#4489FF" offset="100%"></stop>
        </linearGradient>
    </defs>
    <g stroke="none" stroke-width="1" fill="none" fill-rule="evenodd">
        <g transform="translate(-1049.000000, -572.000000)" fill="url(#linearGradient-1)">
            <g transform="translate(1029.000000, 139.000000)">
                <path d="M44,433 C57.254834,433 68,443.745166 68,457 C68,470.254834 57.254834,481 44,481 C30.745166,481 20,470.254834 20,457 C20,443.745166 30.745166,433 44,433 Z M38.5918625,447.002682 C37.974304,447.002682 37.3677081,447.084978 36.7755463,447.25995 C35.8746052,447.526279 35.0608165,447.966636 34.3471528,448.597632 C33.344077,449.484387 32.6877841,450.600286 32.3181625,451.901539 C32.1526276,452.484781 32.0667541,453.083501 32.0216248,453.689393 C31.9746684,454.320201 32.0028057,454.947233 32.1195572,455.567093 C32.2940449,456.493486 32.6247493,457.364385 33.0451641,458.199044 C33.5905523,459.282101 34.2673087,460.274934 35.0127639,461.219446 C36.106281,462.605071 37.3304354,463.859891 38.6265774,465.039588 C40.271512,466.536577 42.0014067,467.921069 43.8394654,469.158713 C43.9578612,469.238555 44.0393497,469.246482 44.1621305,469.163243 C45.7080366,468.115483 47.183234,466.970705 48.5943004,465.737403 C50.0760753,464.44219 51.484401,463.069211 52.7381544,461.53334 C53.6480483,460.418385 54.4676836,459.240575 55.0896271,457.92611 C55.5284956,456.998396 55.8657776,456.035763 55.9604212,454.998763 C56.0980015,453.486108 55.8833177,452.029135 55.2155141,450.670879 C54.2272378,448.660109 52.6221338,447.486641 50.4837005,447.093094 C49.7161374,446.951719 48.9434584,446.977389 48.1751645,447.129334 C47.2716655,447.307704 46.4399713,447.664445 45.6742353,448.186343 C45.0795155,448.591403 44.5500231,449.074985 44.094528,449.641994 C44.0294834,449.723158 43.9770457,449.741089 43.9136455,449.646524 C43.8962881,449.620854 43.874911,449.598015 43.854813,449.574421 C42.4552573,447.941721 40.7167754,447.049304 38.5918625,447.002682 Z" id="receiver"></path>
            </g>
        </g>
    </g>
</svg>