<svg width="28" height="20" xmlns="http://www.w3.org/2000/svg"><defs><linearGradient x1="100%" y1="32%" x2="0%" y2="68%" id="a"><stop stop-color="#9C5EFF" offset="0%"/><stop stop-color="#4489FF" offset="100%"/></linearGradient></defs><g fill="none" fill-rule="evenodd"><path d="M23.063 6.42H3.938c-.933 0-1.688.756-1.688 1.688L4.5 18.233c0 .932.755 1.687 1.688 1.687h14.625c.932 0 1.687-.755 1.687-1.687l2.25-10.125c0-.932-.755-1.688-1.688-1.688zM9 17.108a1.125 1.125 0 1 1-2.25 0v-3.375a1.125 1.125 0 1 1 2.25 0v3.375zm5.625 0a1.125 1.125 0 1 1-2.25 0v-3.375a1.125 1.125 0 1 1 2.25 0v3.375zm5.625 0a1.125 1.125 0 1 1-2.25 0v-3.375a1.125 1.125 0 1 1 2.25 0v3.375z" fill="url(#a)" fill-rule="nonzero" transform="translate(.5 .08)"/><path d="M27.5 7.5c0 .829-.503 1.5-1.125 1.5H1.625C1.003 9 .5 8.329.5 7.5S1.003 6 1.625 6h24.75c.622 0 1.125.671 1.125 1.5z" fill="#4489FF"/><path d="M20.09.41c.44.439.44 1.15 0 1.59l-6.42 8.67a1.125 1.125 0 0 1-1.59-1.59L18.5.41c.44-.44 1.151-.44 1.59 0z" fill="#FFBB01"/></g></svg>
