<svg width="27" height="25" xmlns="http://www.w3.org/2000/svg"><defs><linearGradient x1="100%" y1="7.133%" x2="2.814%" y2="90.454%" id="a"><stop stop-color="#9C5EFF" offset="0%"/><stop stop-color="#4489FF" offset="100%"/></linearGradient></defs><path d="M7.416.003c2.39.052 4.346 1.056 5.92 2.893.023.027.047.052.067.081.071.107.13.087.203-.005a8.152 8.152 0 0 1 1.778-1.637 7.548 7.548 0 0 1 2.813-1.19c.864-.17 1.734-.2 2.597-.04 2.406.442 4.212 1.763 5.323 4.025.752 1.528.993 3.167.838 4.869-.106 1.166-.485 2.25-.98 3.293-.699 1.479-1.62 2.804-2.645 4.058-1.41 1.728-2.994 3.272-4.661 4.73a51.376 51.376 0 0 1-4.987 3.854c-.138.093-.23.084-.363-.005a51.281 51.281 0 0 1-5.864-4.634c-1.458-1.328-2.835-2.74-4.066-4.298-.838-1.063-1.6-2.18-2.213-3.398C.703 11.659.33 10.68.135 9.638a8.116 8.116 0 0 1-.11-2.112c.05-.682.147-1.356.333-2.012.416-1.464 1.154-2.72 2.283-3.717A7.12 7.12 0 0 1 5.372.292 7.175 7.175 0 0 1 7.416.003" fill="url(#a)" fill-rule="evenodd"/></svg>