<svg xmlns="http://www.w3.org/2000/svg" width="20" height="20" viewBox="0 0 322.447 322.447"><path fill="#FFF" d="M315.503 227.604c-2.049-6.306-8.822-9.754-15.129-7.709l-15.614 5.073c9.565-19.78 14.575-41.532 14.575-63.744 0-80.776-65.715-146.49-146.491-146.49-80.776 0-146.491 65.714-146.491 146.49s65.715 146.49 146.49 146.49c6.632 0 12.008-5.376 12.008-12.007 0-6.63-5.376-12.007-12.007-12.007-67.534 0-122.476-54.941-122.476-122.476 0-67.534 54.942-122.476 122.476-122.476 67.534 0 122.476 54.942 122.476 122.476 0 18.609-4.199 36.826-12.222 53.378l-5.334-16.422c-2.05-6.305-8.824-9.756-15.13-7.709-6.307 2.05-9.76 8.824-7.71 15.13l14.159 43.58c1.647 5.076 6.354 8.302 11.417 8.302 1.228 0 2.48-.19 3.712-.59l43.582-14.157c6.306-2.05 9.758-8.823 7.71-15.132z" class="active-path" data-old_color="#F7F0F0" data-original="#000000"/></svg>