<svg width="36" height="36" xmlns="http://www.w3.org/2000/svg"><g fill-rule="nonzero" fill="none"><circle stroke="#4489FF" cx="18" cy="18" r="17.5"/><path d="M28.6 12.55c-.675.375-1.5.6-2.25.675.825-.525 1.425-1.35 1.725-2.325-.75.45-1.575.825-2.55 1.05-.75-.825-1.725-1.35-2.85-1.35-2.175 0-3.975 1.875-3.975 4.275 0 .3 0 .675.075.975-3.3-.15-6.225-1.875-8.175-4.425-.375.6-.525 1.35-.525 2.175 0 1.5.675 2.775 1.725 3.525-.675 0-1.275-.225-1.8-.525v.075c0 2.025 1.35 3.75 3.15 4.2-.3.075-.675.15-1.05.15-.225 0-.525 0-.75-.075.525 1.725 1.95 2.925 3.675 2.925-1.35 1.125-3.075 1.8-4.875 1.8-.3 0-.6 0-.975-.075C10.9 26.8 13 27.55 15.25 27.55c7.275 0 11.25-6.45 11.25-12.075v-.525c.9-.75 1.575-1.5 2.1-2.4z" fill="#4489FF"/></g></svg>