<svg width="36" height="36" xmlns="http://www.w3.org/2000/svg"><g fill-rule="nonzero" fill="none"><circle stroke="#4489FF" cx="18" cy="18" r="17.5"/><path d="M20.207 22.428a9.893 9.893 0 0 0 3.07-1.272 1.55 1.55 0 0 0-1.651-2.624 6.713 6.713 0 0 1-7.118 0 1.55 1.55 0 0 0-1.65 2.624 9.893 9.893 0 0 0 3.069 1.272l-2.952 2.955a1.547 1.547 0 0 0 1.093 2.643c.397 0 .792-.152 1.096-.453l2.904-2.905 2.904 2.905a1.547 1.547 0 0 0 2.19 0 1.547 1.547 0 0 0 0-2.19l-2.955-2.955zM18.068 18.116a5.291 5.291 0 0 1-5.285-5.286 5.291 5.291 0 0 1 5.285-5.285 5.292 5.292 0 0 1 5.286 5.288 5.29 5.29 0 0 1-5.286 5.283zm0-7.472c-1.205 0-2.19.981-2.19 2.19a2.19 2.19 0 0 0 4.379 0 2.19 2.19 0 0 0-2.189-2.19z" fill="#4489FF"/></g></svg>