<svg width="36" height="36" xmlns="http://www.w3.org/2000/svg" xmlns:xlink="http://www.w3.org/1999/xlink"><defs><path id="a" d="M0 0h20v20H0z"/></defs><g fill="none" fill-rule="evenodd"><circle stroke="#4489FF" cx="18" cy="18" r="17.5"/><g transform="translate(8 8)"><mask id="b" fill="#fff"><use xlink:href="#a"/></mask><path d="M18.133 10.016h.064c0-.422.01-.844-.002-1.266-.037-1.186-.026-2.378-.14-3.558-.174-1.778-1.244-2.881-3.001-3.214a6.202 6.202 0 0 0-1.058-.112c-1.976-.029-3.952-.06-5.929-.055-.953.001-1.911.03-2.859.13-1.715.179-2.833 1.178-3.189 2.793-.092.42-.144.857-.152 1.287a310.51 310.51 0 0 0-.056 5.928c.002.954.03 1.912.132 2.86.19 1.778 1.241 2.922 3.005 3.2.981.153 1.99.17 2.987.174 2.065.01 4.13.004 6.195-.059 2.57-.078 3.91-1.433 3.995-4.012.045-1.364.008-2.73.008-4.096M0 13.533V6.467c.024-.285.057-.57.07-.855C.225 2.49 2.087.484 5.186.116 5.61.066 6.039.038 6.467 0h7.066c.285.024.568.057.853.07 3.124.153 5.13 2.015 5.497 5.113.05.426.079.856.117 1.284v7.066c-.024.285-.056.57-.07.855-.156 3.126-2.013 5.126-5.114 5.496-.426.05-.855.078-1.283.116H6.467c-.285-.024-.569-.056-.854-.07-3.125-.155-5.131-2.017-5.497-5.113-.05-.426-.078-.856-.116-1.284" fill="#4489FF" mask="url(#b)"/></g><path d="M17.997 21.245a3.255 3.255 0 0 0 3.248-3.234 3.255 3.255 0 0 0-3.226-3.256 3.255 3.255 0 0 0-3.264 3.25 3.255 3.255 0 0 0 3.242 3.24M23 18.023c-.004 2.769-2.247 4.984-5.04 4.977-2.749-.007-4.964-2.25-4.96-5.023.004-2.769 2.247-4.984 5.039-4.977 2.75.007 4.965 2.25 4.961 5.023M22.999 14A1.002 1.002 0 0 1 22 12.99a.997.997 0 0 1 1.018-.99.99.99 0 0 1 .982.994A.997.997 0 0 1 22.999 14" fill="#4489FF"/></g></svg>