<svg xmlns="http://www.w3.org/2000/svg" width="16" height="15"><path d="M11.092 0v.971V0A4.91 4.91 0 0 1 16 4.902c0 1.334-.533 2.59-1.475 3.501L9.118 13.87 8 15l-.72-.728-.398-.402-5.525-5.585A4.882 4.882 0 0 1 0 4.902a4.91 4.91 0 0 1 8-3.809A4.903 4.903 0 0 1 11.092 0zm0 .971v.972c-.9 0-1.74.418-2.29 1.135L8 4.12l-.801-1.043a2.882 2.882 0 0 0-2.29-1.135C3.313 1.943 2 3.263 2 4.902c0 .775.292 1.506.811 2.05L8 12.196l5.098-5.155c.58-.56.902-1.32.902-2.14 0-1.639-1.313-2.96-2.908-2.96v-.97z"/></svg>