<?xml version="1.0" encoding="UTF-8"?>
<svg width="13px" height="9px" viewBox="0 0 13 9" version="1.1" xmlns="http://www.w3.org/2000/svg" xmlns:xlink="http://www.w3.org/1999/xlink">
    <!-- Generator: sketchtool 54.1 (76490) - https://sketchapp.com -->
    <title>855E6D26-3243-448C-8195-CF9D0E8695B9</title>
    <desc>Created with sketchtool.</desc>
    <defs>
        <linearGradient x1="100%" y1="26.035503%" x2="2.81409439%" y2="72.6157299%" id="linearGradient-1">
            <stop stop-color="#9C5EFF" offset="0%"></stop>
            <stop stop-color="#4489FF" offset="100%"></stop>
        </linearGradient>
    </defs>
    <g id="Item" stroke="none" stroke-width="1" fill="none" fill-rule="evenodd">
        <g id="Item-Auction-0-no-bets" transform="translate(-560.000000, -732.000000)" fill="url(#linearGradient-1)" fill-rule="nonzero">
            <g id="icon/ico-truck" transform="translate(560.000000, 732.000000)">
                <path d="M11.2272727,2.25 L9.45454545,2.25 L9.45454545,0 L1.18181818,0 C0.528863636,0 0,0.5034375 0,1.125 L0,7.3125 L1.18181818,7.3125 C1.18181818,8.2434375 1.97659091,9 2.95454545,9 C3.9325,9 4.72727273,8.2434375 4.72727273,7.3125 L8.27272727,7.3125 C8.27272727,8.2434375 9.0675,9 10.0454545,9 C11.0234091,9 11.8181818,8.2434375 11.8181818,7.3125 L13,7.3125 L13,4.5 L11.2272727,2.25 Z M2.95454545,8.15625 C2.46409091,8.15625 2.06818182,7.779375 2.06818182,7.3125 C2.06818182,6.845625 2.46409091,6.46875 2.95454545,6.46875 C3.445,6.46875 3.84090909,6.845625 3.84090909,7.3125 C3.84090909,7.779375 3.445,8.15625 2.95454545,8.15625 Z M10.9318182,3.09375 L12.0929545,4.5 L9.45454545,4.5 L9.45454545,3.09375 L10.9318182,3.09375 Z M10.0454545,8.15625 C9.555,8.15625 9.15909091,7.779375 9.15909091,7.3125 C9.15909091,6.845625 9.555,6.46875 10.0454545,6.46875 C10.5359091,6.46875 10.9318182,6.845625 10.9318182,7.3125 C10.9318182,7.779375 10.5359091,8.15625 10.0454545,8.15625 Z" id="Shape"></path>
            </g>
        </g>
    </g>
</svg>