<svg xmlns="http://www.w3.org/2000/svg" width="32" height="32" viewBox="0 0 32 32">
    <defs>
        <linearGradient id="a" x1="100%" x2="0%" y1="0%" y2="100%">
            <stop offset="0%" stop-color="#9C5EFF"/>
            <stop offset="100%" stop-color="#4489FF"/>
        </linearGradient>
    </defs>
    <g fill="none" fill-rule="evenodd">
        <circle cx="16" cy="16" r="15" fill="url(#a)"/>
        <g fill="#FFF">
            <path d="M19.025 10.39l2.754 2.704c.036.036.07.074.099.114a1.619 1.619 0 0 0-.45.312l-3.025 2.97c-.133.13-.24.28-.318.442a.934.934 0 0 1-.117-.097l-2.753-2.704a.926.926 0 0 1-.1-.114c.166-.077.318-.182.45-.312l3.025-2.97c.133-.13.24-.28.318-.442.041.029.08.061.117.097zM12.533 13.421a1.526 1.526 0 0 1 0-2.181l3.557-3.502c.305-.3.706-.45 1.108-.45.401 0 .803.15 1.108.45a1.526 1.526 0 0 1 0 2.182l-3.557 3.501c-.305.3-.706.45-1.108.45-.401 0-.803-.15-1.108-.45zM19.845 19.965c-.4 0-.8-.148-1.104-.445l-.004-.004a1.52 1.52 0 0 1 0-2.174l3.556-3.491c.305-.3.706-.449 1.107-.449a1.577 1.577 0 0 1 1.116.457 1.519 1.519 0 0 1-.008 2.167l-3.556 3.49c-.305.3-.706.45-1.107.45zM16.757 16.749l-2.21 2.17a.297.297 0 0 1-.415 0l-.001-.001-1.055-1.036a.284.284 0 0 1 0-.407l.002-.001 2.208-2.169 1.47 1.444zM12.506 18.29l1.227 1.204a.91.91 0 0 1 0 1.304l-3.524 3.46a.945.945 0 0 1-.664.269.945.945 0 0 1-.664-.27l-1.227-1.204a.91.91 0 0 1-.273-.652H7.38a.91.91 0 0 1 .274-.652l3.524-3.46a.945.945 0 0 1 .664-.269c.24 0 .481.09.664.27z"/>
        </g>
    </g>
</svg>
