<svg width="36" height="36" xmlns="http://www.w3.org/2000/svg"><g fill="none" fill-rule="evenodd"><circle stroke="#4489FF" cx="18" cy="18" r="17.5"/><path d="M14.732 23.99c.03-.072.041-.09.043-.108.088-.933.172-1.868.268-2.8a.508.508 0 0 1 .149-.3c.906-.821 1.822-1.632 2.733-2.449 1.301-1.168 2.6-2.338 3.9-3.508.31-.28.623-.557.928-.842.045-.042.093-.147.073-.177-.035-.05-.133-.102-.188-.088-.175.044-.36.09-.51.184-1.708 1.062-3.41 2.134-5.114 3.201-.862.54-1.727 1.078-2.59 1.618-.392.246-.783.496-1.176.746l1.484 4.523m2.852-1.229c-.705.681-1.4 1.348-2.09 2.02-.24.233-.516.33-.85.302-.206-.018-.316-.113-.38-.306-.519-1.603-1.047-3.202-1.565-4.805-.053-.166-.136-.246-.306-.297-1.22-.37-2.437-.75-3.653-1.134a2.13 2.13 0 0 1-.485-.21c-.308-.191-.345-.483-.067-.716.207-.174.455-.315.706-.418.721-.295 1.453-.564 2.18-.842l12.935-4.959c.238-.09.479-.176.714-.274.33-.138.66-.203.962.049.311.26.358.62.285.988-.188.94-.393 1.876-.592 2.814l-1.857 8.705c-.11.517-.21 1.036-.341 1.548-.19.749-.702.963-1.389.604a1.55 1.55 0 0 1-.196-.126l-3.819-2.807-.192-.136" fill="#4489FF"/></g></svg>